<?xml version="1.0" encoding="UTF-8" standalone="no"?>
<svg
   xmlns:dc="http://purl.org/dc/elements/1.1/"
   xmlns:cc="http://creativecommons.org/ns#"
   xmlns:rdf="http://www.w3.org/1999/02/22-rdf-syntax-ns#"
   xmlns:svg="http://www.w3.org/2000/svg"
   xmlns="http://www.w3.org/2000/svg"
   version="1.1"
   id="svg4151"
   viewBox="0 0 32.000001 32.000001"
   height="32"
   width="32">
  <defs
     id="defs4153" />
  <metadata
     id="metadata4156">
    <rdf:RDF>
      <cc:Work
         rdf:about="">
        <dc:format>image/svg+xml</dc:format>
        <dc:type
           rdf:resource="http://purl.org/dc/dcmitype/StillImage" />
        <dc:title></dc:title>
      </cc:Work>
    </rdf:RDF>
  </metadata>
  <g
     transform="translate(-166.85714,-550.64792)"
     id="layer1">
    <g
       transform="matrix(1.0014059,0,0,0.99998131,164.52253,602.26579)"
       id="layer2"
       style="display:inline">
      <path
         d="m 16.612,-19.639 c -7.1377,-0.89819 -12.55,-5.8265 -14.067,-12.809 -0.18361,-0.84506 -0.21182,-1.2647 -0.21358,-3.1769 -0.00179,-1.9458 0.023589,-2.3208 0.21714,-3.2091 1.4075,-6.4597 6.1297,-11.171 12.592,-12.564 0.91861,-0.19795 1.2898,-0.22399 3.1438,-0.22056 2.3516,0.0044 3.1885,0.1305 5.0981,0.76848 4.7208,1.5771 8.4808,5.3525 10.05,10.091 1.6025,4.8403 0.9351,9.8372 -1.88,14.075 -1.5799,2.3782 -3.8377,4.3211 -6.4831,5.5791 -2.1306,1.0131 -3.9151,1.424 -6.4023,1.4743 -0.94602,0.01912 -1.8705,0.01583 -2.0545,-0.0073 l 0,4e-6 z m 3.0578,-11.577 0,-4.3557 1.1706,-0.0269 1.1706,-0.02689 0.1138,-0.95794 c 0.06259,-0.52687 0.13257,-1.2058 0.15552,-1.5088 l 0.04172,-0.55081 -1.3261,0 -1.3261,0 0,-0.9996 c 0,-0.54978 0.04033,-1.1059 0.08963,-1.2359 0.12525,-0.33025 0.62966,-0.47223 1.6956,-0.47724 l 0.89042,-0.0042 0,-1.5232 0,-1.5232 -1.7917,0.04254 c -0.98544,0.0234 -1.9413,0.07417 -2.124,0.11282 -0.5606,0.11855 -1.0803,0.43108 -1.5461,0.92972 -0.67384,0.72144 -0.83854,1.3188 -0.91338,3.3131 l -0.05122,1.3651 -0.89819,0 -0.89819,0 0.02632,1.5088 0.02632,1.5088 0.85596,0.02786 c 0.47078,0.01533 0.87356,0.04551 0.89506,0.06706 0.0215,0.02155 0.03646,1.9812 0.03322,4.3547 l -0.0059,4.3155 1.8581,0 1.8581,0 0,-4.3557 z"
         id="path3356"
         style="fill:#ffffff" />
    </g>
  </g>
</svg>
