<svg xmlns="http://www.w3.org/2000/svg" viewBox="0 0 32.000001 32.000001" height="32" width="32"><path d="M14.3 31.98C7.154 31.08 1.734 26.152.215 19.17.03 18.325.002 17.906 0 15.994c-.002-1.946.024-2.321.218-3.21C1.627 6.326 6.356 1.615 12.828.222c.92-.198 1.29-.224 3.147-.22 2.355.004 3.193.13 5.106.768 4.727 1.577 8.492 5.352 10.064 10.09 1.605 4.84.936 9.838-1.883 14.075-1.582 2.378-3.843 4.321-6.492 5.58-2.134 1.012-3.92 1.423-6.411 1.474-.948.019-1.873.015-2.058-.008zm3.063-11.578v-4.355l1.172-.027 1.172-.027.114-.958c.063-.527.133-1.206.156-1.509l.042-.55h-2.656v-1c0-.55.04-1.106.09-1.236.125-.33.63-.472 1.698-.477l.891-.004V7.212l-1.794.043c-.987.023-1.944.074-2.127.113-.561.118-1.082.43-1.548.93-.675.72-.84 1.318-.915 3.312l-.051 1.365h-1.799l.026 1.51.027 1.508.857.028c.471.015.875.045.896.067.022.022.037 1.981.033 4.355l-.005 4.315h3.72v-4.356z" fill="#fff"/></svg>