<svg xmlns="http://www.w3.org/2000/svg" xmlns:xlink="http://www.w3.org/1999/xlink" viewBox="0 0 880.61182 457.73819" height="610.318" width="1174.149"><defs><symbol id="a" overflow="visible"><path d="M121.5-246.328c1.332 0 2 1.094 2 3.281V-2.953c0 2.187-.668 3.281-2 3.281h-19c-1.5 0-2.25-1.094-2.25-3.281v-104.625H39V-2.953C39-.766 38.164.328 36.5.328H18c-1.5 0-2.25-1.094-2.25-3.281l-.25-240.094c0-2.187.832-3.281 2.5-3.281h18.5c1.664 0 2.5 1.094 2.5 3.281v104.625h61.25v-104.625c0-2.187.75-3.281 2.25-3.281zm0 0"/></symbol><symbol id="b" overflow="visible"><path d="M65.5-246.328c7.332 0 14.207 1.86 20.625 5.578 6.414 3.719 12.04 8.75 16.875 15.094 4.832 6.336 8.625 13.765 11.375 22.297 2.75 8.53 4.125 17.605 4.125 27.218v106.282c0 9.617-1.375 18.687-4.125 27.218-2.75 8.532-6.543 15.97-11.375 22.313-4.836 6.336-10.46 11.36-16.875 15.078C79.707-1.531 72.832.328 65.5.328c-7.336 0-14.25-1.86-20.75-5.578-6.5-3.719-12.168-8.742-17-15.078-4.836-6.344-8.625-13.781-11.375-22.313-2.75-8.53-4.125-17.601-4.125-27.218v-106.282c0-9.613 1.375-18.687 4.125-27.218 2.75-8.532 6.54-15.961 11.375-22.297 4.832-6.344 10.5-11.375 17-15.094 6.5-3.719 13.414-5.578 20.75-5.578zm0 216.156c4.164 0 8.04-1.035 11.625-3.11 3.582-2.081 6.75-4.925 9.5-8.53 2.75-3.614 4.914-7.82 6.5-12.626C94.707-59.25 95.5-64.39 95.5-69.858v-106.282c0-5.468-.793-10.601-2.375-15.406-1.586-4.812-3.75-8.969-6.5-12.469s-5.918-6.285-9.5-8.359c-3.586-2.082-7.46-3.125-11.625-3.125-4.168 0-8.086 1.043-11.75 3.125-3.668 2.074-6.875 4.86-9.625 8.36-2.75 3.5-4.918 7.656-6.5 12.468-1.586 4.805-2.375 9.938-2.375 15.406v106.282c0 5.468.79 10.609 2.375 15.421 1.582 4.805 3.75 9.012 6.5 12.625 2.75 3.606 5.957 6.45 9.625 8.532 3.664 2.074 7.582 3.11 11.75 3.11zm0 0"/></symbol><symbol id="c" overflow="visible"><path d="M67-246.328c7.332 0 14.164 1.808 20.5 5.422 6.332 3.605 11.875 8.523 16.625 14.75 4.75 6.23 8.5 13.558 11.25 21.984 2.75 8.418 4.125 17.324 4.125 26.719 0 9.844-1.25 18.976-3.75 27.39-2.5 8.418-5.96 15.688-10.375 21.813-4.418 6.125-9.668 10.938-15.75 14.438-6.086 3.5-12.71 5.25-19.875 5.25H39V-2.954C39-.984 38.082 0 36.25 0h-18.5c-1.336 0-2-.984-2-2.953l-.25-240.422c0-1.969.75-2.953 2.25-2.953zm-28 107.25h30.75c7.664 0 14-3.602 19-10.813 5-7.218 7.5-16.406 7.5-27.562 0-5.238-.793-10.207-2.375-14.906-1.586-4.707-3.668-8.754-6.25-12.141-2.586-3.395-5.668-6.078-9.25-8.047C74.789-214.516 71-215.5 67-215.5H39zm0 0"/></symbol><symbol id="d" overflow="visible"><path d="M75.438-84.25C80.28-79.582 84.102-74 86.906-67.5c2.801 6.5 4.203 13.5 4.203 21 0 6.5-1.117 12.668-3.343 18.5-2.23 5.836-5.258 10.96-9.079 15.375C74.876-8.207 70.383-4.75 65.22-2.25A36.966 36.966 0 0 1 48.89 1.5C43.16 1.5 37.75.25 32.656-2.25c-5.093-2.5-9.523-5.957-13.281-10.375-3.75-4.414-6.742-9.54-8.969-15.375-2.23-5.832-3.344-12-3.344-18.5 0-.832.192-1.5.579-2 .382-.5.765-.75 1.14-.75h14.516c1.144 0 1.719.918 1.719 2.75 0 3.336.632 6.46 1.906 9.375 1.281 2.918 3 5.5 5.156 7.75A24.978 24.978 0 0 0 39.625-24c2.875 1.336 5.96 2 9.266 2 3.312 0 6.398-.664 9.265-2a25.075 25.075 0 0 0 7.547-5.375 26.193 26.193 0 0 0 5.156-7.75c1.27-2.914 1.907-6.04 1.907-9.375 0-3.332-.668-6.625-2-9.875-1.336-3.25-3.34-6.125-6.016-8.625l-42.781-39.25a90.94 90.94 0 0 1-1.625-1.625 19.293 19.293 0 0 1-1.625-1.875c-3.7-4.5-6.57-9.625-8.61-15.375-2.03-5.75-3.046-11.79-3.046-18.125 0-6.664 1.082-12.914 3.25-18.75 2.164-5.832 5.156-10.914 8.968-15.25 3.82-4.332 8.282-7.75 13.375-10.25 5.094-2.5 10.504-3.75 16.235-3.75 5.726 0 11.172 1.25 16.328 3.75a42.375 42.375 0 0 1 13.469 10.25c3.82 4.336 6.847 9.418 9.078 15.25 2.226 5.836 3.343 12.086 3.343 18.75 0 1.668-.703 2.5-2.109 2.5H74.687c-1.28 0-1.921-.832-1.921-2.5 0-3.332-.637-6.457-1.907-9.375a26.244 26.244 0 0 0-5.156-7.75 25.144 25.144 0 0 0-7.547-5.375c-2.867-1.332-5.953-2-9.265-2-3.305 0-6.391.668-9.266 2a25.046 25.046 0 0 0-7.547 5.375 26.55 26.55 0 0 0-5.156 7.75c-1.274 2.918-1.906 6.043-1.906 9.375 0 3 .539 5.875 1.625 8.625A31.508 31.508 0 0 0 30.938-125c.132.168.488.543 1.062 1.125.57.586 2.29 2.125 5.156 4.625 2.864 2.5 7.254 6.46 13.172 11.875a8620.62 8620.62 0 0 1 25.11 23.125zm0 0"/></symbol><symbol id="e" overflow="visible"><path d="M92.828-187.75c1.02 0 1.531.836 1.531 2.5v183c0 1.668-.511 2.5-1.53 2.5H78.312c-1.149 0-1.72-.832-1.72-2.5V-82H29.798v79.75c0 1.668-.637 2.5-1.906 2.5H13.75c-1.148 0-1.719-.832-1.719-2.5l-.187-183c0-1.664.633-2.5 1.906-2.5h14.14c1.27 0 1.907.836 1.907 2.5v79.75h46.797v-79.75c0-1.664.57-2.5 1.719-2.5zm0 0"/></symbol><symbol id="f" overflow="visible"><path d="M50.047-187.75c5.601 0 10.851 1.418 15.75 4.25 4.906 2.836 9.203 6.668 12.89 11.5 3.696 4.836 6.594 10.5 8.688 17 2.102 6.5 3.156 13.418 3.156 20.75v81c0 7.336-1.054 14.25-3.156 20.75-2.094 6.5-4.992 12.168-8.688 17C75-10.664 70.704-6.832 65.797-4 60.898-1.164 55.648.25 50.047.25 44.44.25 39.157-1.164 34.187-4c-4.968-2.832-9.304-6.664-13-11.5-3.687-4.832-6.585-10.5-8.687-17-2.094-6.5-3.14-13.414-3.14-20.75v-81c0-7.332 1.046-14.25 3.14-20.75 2.102-6.5 5-12.164 8.688-17 3.695-4.832 8.03-8.664 13-11.5 4.968-2.832 10.253-4.25 15.859-4.25zm0 164.75c3.176 0 6.133-.79 8.875-2.375 2.738-1.582 5.156-3.75 7.25-6.5 2.101-2.75 3.758-5.957 4.969-9.625 1.218-3.664 1.828-7.582 1.828-11.75v-81c0-4.164-.61-8.082-1.828-11.75-1.211-3.664-2.868-6.832-4.97-9.5-2.093-2.664-4.51-4.79-7.25-6.375a17.46 17.46 0 0 0-8.874-2.375c-3.188 0-6.184.793-8.984 2.375-2.805 1.586-5.258 3.71-7.36 6.375-2.094 2.668-3.746 5.836-4.953 9.5-1.21 3.668-1.813 7.586-1.813 11.75v81c0 4.168.602 8.086 1.813 11.75 1.207 3.668 2.86 6.875 4.953 9.625 2.102 2.75 4.555 4.918 7.36 6.5 2.8 1.586 5.796 2.375 8.984 2.375zm0 0"/></symbol><symbol id="g" overflow="visible"><path d="M51.188-187.75c5.601 0 10.82 1.375 15.656 4.125 4.844 2.75 9.078 6.5 12.703 11.25 3.633 4.75 6.5 10.336 8.594 16.75 2.101 6.418 3.156 13.21 3.156 20.375 0 7.5-.961 14.46-2.875 20.875-1.906 6.418-4.547 11.96-7.922 16.625-3.375 4.668-7.387 8.336-12.031 11-4.649 2.668-9.711 4-15.188 4H29.797v80.5c0 1.5-.703 2.25-2.11 2.25H13.563c-1.023 0-1.53-.75-1.53-2.25l-.188-183.25c0-1.5.57-2.25 1.719-2.25zM29.797-106H53.28c5.864 0 10.703-2.75 14.516-8.25 3.82-5.5 5.734-12.5 5.734-21 0-4-.605-7.79-1.812-11.375-1.211-3.582-2.805-6.664-4.781-9.25-1.97-2.582-4.325-4.625-7.063-6.125-2.742-1.5-5.637-2.25-8.688-2.25h-21.39zm0 0"/></symbol></defs><path d="M397.678 453.61c-6.613-15.587-20.442-28.958-30.399-45.637-14.558-24.594-24.058-54.461.555-91.926 10.809-20.371 30.871-22.07 30.871-22.07s14.418-1.13 27.793 27.16c10.254 21.664 23.637 44.421 2.2 82.238-6.555 11.566-23.243 36.285-31.02 50.234" fill="#cfcfcf"/><path d="M398.963 298.098c-1.352.144-18.125 2.25-27.484 19.882a5.678 5.678 0 0 1-.196.332c-24.234 36.88-13.828 64.961-.457 87.559 4.035 6.758 8.813 13.07 13.438 19.176 5.047 6.676 9.89 13.074 13.703 19.86 3.945-6.567 8.828-14.24 13.598-21.72 5.433-8.543 10.57-16.609 13.543-21.851 19.12-33.727 9.144-54.508-.504-74.602a664.162 664.162 0 0 1-1.832-3.828c-11.45-24.203-23.036-24.797-23.809-24.808m-1.285 159.64c-.074 0-.149-.004-.223-.004a4.138 4.138 0 0 1-3.574-2.512c-3.652-8.609-9.75-16.664-16.203-25.195-4.754-6.281-9.672-12.781-13.945-19.937-13.801-23.332-26.196-55.313.546-96.153 11.75-21.937 33.172-23.992 34.079-24.07.027 0 .218-.02.582-.02 2.894 0 18 1.422 31.292 29.524.594 1.262 1.2 2.523 1.81 3.79 10.077 20.983 21.495 44.765.245 82.25-3.074 5.417-8.265 13.573-13.765 22.21-6.442 10.117-13.106 20.582-17.239 27.996a4.133 4.133 0 0 1-3.605 2.121"/><path d="M437.084 423.851s-6.156-40.793-33.387-78.832c-8.84-13.214 13.192-68.87 48.762-75.859 35.574-6.984 56.559 107.176-15.375 154.691" fill="#cfcfcf"/><path d="M407.096 342.68c21.351 29.851 29.941 60.96 32.828 74.117 42.937-32.364 45.715-89.051 36.93-118.297-4.73-15.742-12.887-25.52-21.282-25.52-.761 0-1.543.078-2.312.227-19.93 3.918-35.207 25.055-42.235 41.973-5.59 13.457-6.207 24-3.93 27.5m29.99 85.296a4.119 4.119 0 0 1-4.078-3.512c-.083-.523-6.415-40.37-32.665-77.042-.024-.035-.05-.067-.078-.106-4.45-6.656-3.274-19.855 3.144-35.304 8.18-19.7 25.157-42.364 48.254-46.903 1.301-.254 2.617-.383 3.91-.383 12.368 0 23.278 11.735 29.184 31.399 6.066 20.18 6.02 44.668-.133 67.176-5.187 18.98-17.246 45.484-45.262 63.992a4.117 4.117 0 0 1-2.277.683"/><path d="M359.608 423.851s6.16-40.793 33.394-78.832c8.84-13.214-13.195-68.87-48.77-75.859-35.57-6.984-56.55 107.176 15.376 154.691" fill="#cfcfcf"/><path d="M341.123 272.976c-8.394 0-16.55 9.782-21.277 25.524-8.79 29.246-6.008 85.933 36.926 118.297 2.886-13.157 11.476-44.262 32.828-74.117 2.273-3.5 1.66-14.043-3.93-27.504-7.023-16.918-22.3-38.051-42.23-41.97-.778-.148-1.551-.23-2.317-.23m18.485 155c-.793 0-1.586-.23-2.274-.683-28.016-18.504-40.078-45.012-45.262-63.992-6.144-22.508-6.199-46.996-.132-67.176 5.906-19.664 16.82-31.399 29.183-31.399 1.297 0 2.606.13 3.906.383 23.11 4.54 40.082 27.2 48.262 46.903 6.414 15.449 7.59 28.648 3.14 35.304-.027.035-.046.07-.077.106-26.344 36.812-32.606 76.648-32.664 77.047a4.127 4.127 0 0 1-4.082 3.507"/><path d="M397.678 402.574c-12.692-20.336-25.121-23.23-40.195-51.633-12.47-23.504-18.067-53.808 3.144-86.086 10.809-20.37 38.078-22.066 38.078-22.066s21.106-1.133 34.485 27.156c8.675 18.344 15.835 46.906 3.812 77.524-6.52 16.617-32.71 39.43-39.324 55.105" fill="#cfcfcf"/><path d="M399.045 246.91l-.148.004c-.18.012-25.059 1.84-34.625 19.879-.063.11-.125.223-.2.328-17.03 25.922-18.02 53.473-2.941 81.887 8.32 15.68 15.812 23.332 23.059 30.726 4.28 4.371 8.668 8.856 13.066 14.852 4.043-6.512 9.988-13.582 16.191-20.957 8.164-9.7 16.602-19.73 19.715-27.664 12.403-31.582 3-60.078-3.703-74.25-11.402-24.11-28.504-24.805-30.414-24.805m-1.367 159.79a4.11 4.11 0 0 1-3.496-1.942c-5.219-8.352-10.403-13.645-15.887-19.242-7.664-7.825-15.578-15.907-24.457-32.641-16.332-30.777-15.211-61.941 3.234-90.125 11.817-21.996 40.172-24.004 41.38-24.078.034-.004.226-.016.593-.016 3.988 0 24.578 1.426 37.875 29.528 7.273 15.375 17.461 46.324 3.926 80.796-3.61 9.2-12.492 19.754-21.082 29.961-7.531 8.957-15.324 18.22-18.281 25.235a4.12 4.12 0 0 1-3.805 2.523"/><path d="M499.701 297.473s-3.98 51.859 3.375 73.75c-26.488-20.02-52.922-41.93-60.672-66.672-7.523-30.395 51.473-79.297 57.297-7.078" fill="#cfcfcf"/><path d="M446.381 303.441c6.656 21.051 28.262 40.504 50.14 57.559-3.71-23.938-1.265-59.367-.96-63.512-1.793-21.547-8.598-33.414-19.176-33.414-7.09 0-15.55 5.188-22.082 13.535-6.672 8.524-9.703 18.406-7.922 25.832m56.715 71.91h-.02c-.874 0-1.75-.277-2.488-.836-25.73-19.445-53.87-42.398-62.125-68.726-.023-.082-.047-.164-.062-.246-2.472-9.992 1.04-22.336 9.403-33.024 8.18-10.457 18.867-16.695 28.582-16.695 9.004 0 24.531 5.367 27.433 41.316.016.22.016.434 0 .649-.039.508-3.793 50.75 3.063 71.793a4.127 4.127 0 0 1-3.785 5.77"/><path d="M456.303 367.652s-15.828-33.058-47.219-67.004c-10.293-11.883 5.152-70.16 39.633-82.035 24.726-8.523 49.875 29.23 35.773 90.79-4.746 20.741-18.12 32.437-28.187 58.25" fill="#cfcfcf"/><path d="M412.17 297.902c22.629 24.488 37.145 48.246 43.742 60.14 3.805-8.241 7.856-15.023 11.535-21.183 5.676-9.508 10.582-17.719 13.024-28.375 8.812-38.48 1.46-65.355-8.356-77.676-4.836-6.062-10.511-9.265-16.43-9.265-1.863 0-3.75.324-5.624.969-19.809 6.824-32.551 30.515-37.45 48.734-3.64 13.55-2.98 23.644-.441 26.656m44.129 73.88a4.124 4.124 0 0 1-3.719-2.345c-.156-.328-15.969-32.937-46.527-65.984a2.143 2.143 0 0 0-.09-.105c-5.031-5.805-5.524-18.606-1.32-34.247 5.68-21.136 19.89-46.523 42.73-54.394 2.734-.942 5.531-1.418 8.313-1.418 8.398 0 16.523 4.394 22.882 12.379 14.27 17.906 17.989 49.555 9.95 84.656-2.739 11.93-8.204 21.082-13.989 30.766-4.879 8.175-9.925 16.625-14.382 28.062a4.135 4.135 0 0 1-3.696 2.625c-.05 0-.101.004-.152.004"/><path d="M510.022 243.367s.367 50.023 9.875 71.004c-28.348-17.047-54.106-34.984-64.297-58.762-10.532-29.422 41.382-83.46 54.422-12.242" fill="#cfcfcf"/><path d="M459.443 254.105c8.235 19.098 27.028 34.504 52.938 50.809-5.883-22.957-6.43-56.938-6.48-61.152-3.778-20.305-11.094-31.477-20.618-31.477-6.28 0-13.691 4.965-19.32 12.965-6.754 9.59-9.305 20.898-6.52 28.855m60.454 64.395c-.73 0-1.461-.195-2.125-.59-26.051-15.668-54.782-34.57-65.97-60.672l-.09-.238c-4.527-12.637.911-27.145 7.5-36.504 7.263-10.309 17.009-16.465 26.071-16.465 8.117 0 22.652 5.012 28.801 38.594.043.234.062.473.07.71 0 .493.46 48.895 9.367 69.028.332.594.52 1.277.52 2.008a4.123 4.123 0 0 1-4.118 4.129zm0 0"/><path d="M297.006 297.012s4.238 51.84-3.008 73.77c26.395-20.18 52.711-42.247 60.344-67.036 7.371-30.438-51.871-78.988-57.336-6.734" fill="#cfcfcf"/><path d="M301.15 297.004c.325 4.144 2.946 39.554-.648 63.515 21.793-17.191 43.305-36.773 49.86-57.863 1.734-7.39-1.313-17.215-7.97-25.68-6.554-8.328-15.038-13.5-22.144-13.5-10.633 0-17.41 11.903-19.098 33.528m-7.152 77.902c-.836 0-1.672-.25-2.39-.762a4.13 4.13 0 0 1-1.528-4.656c6.899-20.898 2.86-71.633 2.813-72.144a4.444 4.444 0 0 1 0-.645c2.726-36.09 18.312-41.476 27.355-41.476 9.723 0 20.426 6.222 28.629 16.652 8.348 10.605 11.887 22.883 9.473 32.844a1.882 1.882 0 0 1-.063.246c-8.12 26.375-36.148 49.492-61.781 69.097a4.137 4.137 0 0 1-2.508.844"/><path d="M341.764 367.652s15.82-33.058 47.21-67.004c10.298-11.883-5.148-70.16-39.632-82.035-24.727-8.523-49.867 29.23-35.77 90.79 4.746 20.741 18.121 32.437 28.192 58.25" fill="#cfcfcf"/><path d="M342.373 221.539c-5.914 0-11.598 3.207-16.426 9.273-9.82 12.317-17.172 39.192-8.355 77.672 2.437 10.656 7.344 18.867 13.02 28.375 3.68 6.156 7.734 12.942 11.538 21.184 6.598-11.895 21.114-35.653 43.747-60.14 2.535-3.013 3.199-13.106-.45-26.66-4.894-18.216-17.64-41.907-37.449-48.731-1.867-.645-3.762-.973-5.625-.973m-.61 150.242c-.05 0-.105-.004-.155-.004a4.134 4.134 0 0 1-3.692-2.625c-4.46-11.437-9.512-19.89-14.39-28.062-5.786-9.688-11.247-18.836-13.981-30.766-8.04-35.105-4.32-66.754 9.941-84.66 6.364-7.98 14.493-12.38 22.887-12.38 2.781 0 5.578.481 8.313 1.427 22.84 7.863 37.05 33.258 42.734 54.39 4.2 15.637 3.707 28.442-1.324 34.25a2.06 2.06 0 0 1-.086.102c-30.567 33.043-46.371 65.656-46.531 65.984a4.114 4.114 0 0 1-3.715 2.344"/><path d="M397.498 346.855c-11.965-16.3-28.012-29.543-34.46-43.242-13.755-24.223-21.81-54.644-.231-89.723 10.12-20.363 35.656-22.062 35.656-22.062s19.762-1.133 32.29 27.16c8.776 19.82 15.897 49.254.48 82.645-6.583 14.27-24.536 29.875-33.735 45.222" fill="#cfcfcf"/><path d="M398.686 195.95c-1.286.108-23.485 2.276-32.184 19.78a6.82 6.82 0 0 1-.18.328c-17.117 27.829-17.02 55 .305 85.516.055.094.106.188.148.281 3.567 7.578 10.625 15.387 18.106 23.645 4.121 4.562 8.355 9.238 12.344 14.23 3.918-5.586 8.636-11.117 13.23-16.511 7.031-8.254 13.68-16.055 17.027-23.313 11.72-25.375 11.551-52.035-.507-79.246-10.633-24.02-26.434-24.715-28.196-24.715zm-1.188 155.03a4.11 4.11 0 0 1-3.32-1.687c-4.738-6.445-10.168-12.45-15.422-18.254-7.852-8.684-15.273-16.887-19.379-25.524-18.61-32.847-18.664-63.472-.18-93.628 11.102-22.075 37.856-24.102 38.993-24.18.035 0 .226-.012.59-.012 3.777 0 23.257 1.43 35.742 29.621 13.062 29.477 13.21 58.43.46 86.047-3.828 8.293-10.835 16.512-18.246 25.211-5.746 6.742-11.687 13.711-15.695 20.402a4.138 4.138 0 0 1-3.348 2c-.062 0-.128.004-.195.004"/><path d="M288.83 242.422s-2.418 49.968-12.773 70.554c29.02-15.906 55.496-32.8 66.652-56.152 11.73-28.98-37.934-85.047-53.879-14.402" fill="#cfcfcf"/><path d="M292.936 242.984c-.223 4.211-2.16 38.133-8.98 60.836 26.558-15.262 45.96-29.906 54.972-48.656 3.168-7.992.836-19.965-5.824-29.84-5.399-8.016-12.586-12.984-18.762-12.984-9.293 0-16.89 10.879-21.406 30.644m-16.883 74.117a4.108 4.108 0 0 1-2.867-1.156 4.132 4.132 0 0 1-.82-4.824c9.855-19.578 12.316-68.406 12.34-68.898.01-.239.046-.477.093-.711 6.988-30.934 19.922-37.426 29.543-37.426 9.02 0 18.59 6.21 25.605 16.62 8.285 12.294 10.871 27.079 6.586 37.669-.031.078-.066.152-.101.23-12.246 25.633-41.727 43.371-68.39 57.993a4.154 4.154 0 0 1-1.99.503"/><path d="M462.342 300.137s-21.66-29.23-53.05-63.18c-10.294-11.879 3.6-69.024 38.081-80.902 23.934-8.25 47.375 30.941 39.332 81.418-3.543 22.242-13.762 26.656-24.363 62.664" fill="#cfcfcf"/><path d="M412.377 234.215c22.559 24.398 40.266 46.586 48.402 57.082 4.594-13.778 9.051-22.422 12.739-29.574 4.324-8.387 7.449-14.446 9.113-24.899 4.375-27.473-.79-54.59-13.156-69.082-6.34-7.437-13.66-10.234-20.758-7.785-19.137 6.59-31.168 28.351-36.055 46.516-3.765 14.003-2.992 24.53-.285 27.742m49.961 70.05a4.131 4.131 0 0 1-3.316-1.671c-.211-.29-21.899-29.457-52.758-62.832-.031-.036-.063-.067-.09-.098-6.18-7.133-4.816-22.93-1.48-35.336 5.43-20.207 19.14-44.531 41.335-52.176a23.74 23.74 0 0 1 7.778-1.328c7.906 0 15.496 3.996 21.949 11.559 14.082 16.504 19.84 45.523 15.027 75.738-1.875 11.762-5.609 19-9.93 27.383-4.382 8.508-9.359 18.148-14.554 35.797a4.127 4.127 0 0 1-3.238 2.898c-.243.043-.48.066-.723.066"/><path d="M335.717 300.137s21.66-29.23 53.05-63.18c10.294-11.879-3.6-69.024-38.081-80.902-23.934-8.25-47.371 30.941-39.328 81.418 3.539 22.242 13.761 26.656 24.359 62.664" fill="#cfcfcf"/><path d="M344.26 159.078c-5.422 0-10.84 2.992-15.676 8.664-12.371 14.492-17.531 41.61-13.156 69.082 1.664 10.453 4.789 16.512 9.113 24.899 3.688 7.152 8.149 15.792 12.738 29.574 8.137-10.496 25.848-32.684 48.407-57.082 2.71-3.211 3.476-13.742-.286-27.746-4.882-18.164-16.921-39.922-36.058-46.512a15.444 15.444 0 0 0-5.082-.879m-8.535 145.187c-.246 0-.489-.023-.727-.066a4.111 4.111 0 0 1-3.234-2.898c-5.2-17.649-10.176-27.29-14.559-35.797-4.32-8.38-8.055-15.621-9.926-27.383-4.816-30.215.946-59.234 15.028-75.738 6.449-7.563 14.039-11.559 21.953-11.559 2.605 0 5.219.445 7.77 1.324 22.19 7.649 35.906 31.973 41.34 52.18 3.331 12.402 4.695 28.203-1.481 35.336-.031.031-.063.062-.094.098-30.879 33.398-52.547 62.543-52.758 62.832a4.13 4.13 0 0 1-3.312 1.672"/><path d="M528.861 248.672s-83.785-13.153-98.586-84.496c-9.214-22.93 8.395-27.63 18.63-28.7 10.234-1.078 44.253-1.996 54.199 37.36 9.953 39.347 1.753 34.297 25.757 75.836" fill="#cfcfcf"/><path d="M455.443 139.262c-2.05 0-4.105.105-6.105.316-5.684.598-13.086 2.348-16.059 7.293-2.195 3.64-1.918 8.945.82 15.766.09.226.165.46.216.699 5.878 28.336 23.628 50.61 52.753 66.203 13.102 7.016 25.618 11.012 33.618 13.098-12.739-22.899-13.907-29.7-16.2-43.032-1.07-6.234-2.406-13.992-5.386-25.761-7.223-28.582-27.727-34.582-43.657-34.582M528.861 252.8c-.214 0-.425-.016-.644-.051-.879-.137-21.899-3.54-45.043-15.934-30.82-16.5-50.477-41.203-56.867-71.445-3.621-9.2-3.657-16.856-.102-22.758 3.801-6.305 11.293-10.09 22.27-11.242a66.487 66.487 0 0 1 6.968-.363c15.438 0 42.684 5.304 51.664 40.816 3.051 12.078 4.415 20.008 5.512 26.383 2.434 14.156 3.45 20.047 19.649 48.11a4.128 4.128 0 0 1-3.367 6.484zm0 0"/><path d="M265.162 247.465s83.582-14.328 97.36-85.875c8.878-23.055-8.797-27.504-19.043-28.438-10.246-.933-44.282-1.375-53.657 38.117-9.382 39.485-1.261 34.317-24.66 76.196" fill="#cfcfcf"/><path d="M337.818 137.023c-16.25 0-37.07 6.11-43.984 35.2-2.8 11.804-4.027 19.582-5.008 25.832-2.097 13.359-3.168 20.18-15.574 43.253 8.023-2.218 20.602-6.433 33.64-13.683 28.77-15.996 46.122-38.477 51.575-66.813.047-.238.113-.476.207-.707 2.637-6.855 2.836-12.164.598-15.773-3.051-4.902-10.477-6.55-16.168-7.07a57.711 57.711 0 0 0-5.286-.239M265.162 251.59c-1.328 0-2.59-.64-3.367-1.746a4.121 4.121 0 0 1-.238-4.395c15.953-28.547 16.879-34.437 19.117-48.68 1.008-6.386 2.254-14.336 5.133-26.453 3.789-15.965 11.808-27.578 23.816-34.515 10.055-5.809 20.887-7.028 28.195-7.028 2.024 0 4.055.09 6.036.27 10.992 1.004 18.535 4.68 22.421 10.933 3.645 5.848 3.715 13.504.227 22.754-5.95 30.332-25.25 55.301-55.828 72.235-22.965 12.718-43.934 16.414-44.816 16.562a3.832 3.832 0 0 1-.696.063"/><path d="M417.838 109.082l-22.785-1.293s-10.867-38.258 1.926-84.914c6.64-25.27 29.312-27.98 24.175-16.035-19.433 45.195-3.316 102.242-3.316 102.242" fill="#cfcfcf"/><path d="M530.139 149.71s-52.946 47.782-109.149-5.597c-20.828-24.582-19.511-49.156-5.324-54.785 27.988-11.11 47.52 6.973 61.461 23.402 17.813 20.98 24.91 41.899 53.012 36.98" fill="#cfcfcf"/><path d="M423.998 141.277c16.813 15.91 34.942 23.98 53.88 23.98 16.198 0 29.882-5.933 38.73-11.1-15.047-2.224-23.31-13.349-32.711-26.017-3.082-4.152-6.266-8.44-9.91-12.738-10.653-12.547-23.907-25.375-41.442-25.375-4.953 0-10.117 1.055-15.355 3.133-4.57 1.816-6.473 5.95-7.258 9.102-2.082 8.336.523 22.953 14.066 39.015m53.88 32.23c-21.188.005-41.282-8.882-59.724-26.402a3.065 3.065 0 0 1-.308-.328c-13.32-15.715-19.27-33.105-15.922-46.515 1.777-7.102 6.113-12.348 12.219-14.774 6.21-2.46 12.402-3.71 18.402-3.71 21.027 0 36.555 15.112 47.73 28.284 3.82 4.5 7.086 8.903 10.25 13.16 9.946 13.403 17.133 23.086 31.77 23.086 2.211 0 4.61-.222 7.129-.664a4.13 4.13 0 0 1 4.418 2.258 4.119 4.119 0 0 1-.945 4.871c-.934.848-23.332 20.735-55.024 20.735"/><path d="M399.877 279.004c-14.91-22.13-28.922-26.043-43.68-56.504-11.125-22.945-13.496-45.824 6.625-76.457 10.817-20.367 38.082-22.063 38.082-22.063s21.106-1.132 34.489 27.16c8.18 17.301 16.875 38.586 7.523 67.227-5.937 18.188-32.492 38.508-43.039 60.637" fill="#cfcfcf"/><path d="M401.244 128.101h-.148c-.176.012-25.055 1.844-34.63 19.875a2.554 2.554 0 0 1-.194.332c-20.961 31.91-15.446 53.653-6.36 72.395 8.535 17.621 16.672 25.902 25.274 34.668 4.617 4.7 9.359 9.52 14.195 15.86 5.34-8.954 12.637-17.438 19.738-25.696 8.774-10.2 17.063-19.832 19.875-28.445 8.676-26.582 1.137-46.282-7.336-64.188-11.402-24.105-28.504-24.8-30.414-24.8m-1.367 155.027a4.132 4.132 0 0 1-3.422-1.817c-5.773-8.574-11.3-14.199-17.156-20.156-8.7-8.86-17.688-18.016-26.816-36.851-13.668-28.2-11.633-52.247 6.792-80.368 11.813-21.992 40.172-24.004 41.375-24.078.036 0 .23-.011.594-.011 3.989 0 24.582 1.421 37.875 29.527 8.778 18.555 17.34 40.816 7.719 70.277-3.324 10.18-12.137 20.422-21.461 31.266-8.316 9.672-16.914 19.668-21.777 29.863a4.12 4.12 0 0 1-3.418 2.34c-.098.008-.203.008-.305.008"/><path d="M267.92 149.71s52.95 47.782 109.148-5.597c20.832-24.582 19.512-49.156 5.325-54.785-27.98-11.11-47.512 6.973-61.461 23.402-17.813 20.98-24.907 41.899-53.012 36.98" fill="#cfcfcf"/><path d="M281.479 154.156c8.87 5.164 22.57 11.102 38.703 11.102 18.937 0 37.07-8.07 53.879-23.98 13.539-16.063 16.152-30.68 14.066-39.016-.785-3.153-2.68-7.286-7.254-9.102-5.242-2.078-10.406-3.133-15.36-3.133-17.534 0-30.788 12.828-41.437 25.375-3.648 4.297-6.832 8.594-9.91 12.742-9.398 12.657-17.656 23.774-32.687 26.012m38.703 19.352c-31.684 0-54.09-19.887-55.028-20.735a4.127 4.127 0 1 1 3.477-7.129c2.52.442 4.918.664 7.133.664 14.636 0 21.824-9.683 31.77-23.085 3.163-4.254 6.429-8.66 10.253-13.16 11.176-13.173 26.703-28.286 47.727-28.286 6.004 0 12.191 1.246 18.402 3.711 6.106 2.426 10.45 7.672 12.219 14.77 3.355 13.414-2.598 30.804-15.922 46.52-.094.116-.2.226-.309.327-18.441 17.52-38.535 26.403-59.722 26.403"/><path d="M439.1 132.164c0 29.46-27.711 49.637-38.828 74.766-12.399-25.13-42.5-44.907-42.5-74.368 0-29.46 21.054-45.78 42.5-45.78 21.445 0 38.828 15.917 38.828 45.382" fill="#cfcfcf"/><path d="M400.268 90.906c-19.07 0-38.371 14.309-38.371 41.656 0 17.168 11.222 30.922 23.105 45.485 5.277 6.468 10.695 13.101 15.082 20.125 3.98-7.035 8.926-13.715 13.746-20.227 10.875-14.691 21.14-28.562 21.14-45.781 0-25.066-13.62-41.258-34.702-41.258m-.004 120.152a4.132 4.132 0 0 1-3.7-2.3c-4.343-8.813-10.957-16.918-17.957-25.496-12.273-15.04-24.968-30.594-24.968-50.7 0-14.894 5-27.652 14.453-36.89 8.465-8.274 20.195-13.02 32.176-13.02 21.382 0 42.957 15.313 42.957 49.512 0 19.937-11.567 35.57-22.762 50.687-6.426 8.688-12.496 16.887-16.422 25.75a4.132 4.132 0 0 1-3.691 2.457zm0 0"/><g transform="matrix(.77335 0 0 .77335 -104.06 127.467)" fill="#dee1e1"><use height="100%" width="100%" y="254.121" x="119.059" xlink:href="#a"/><use height="100%" width="100%" y="254.121" x="239.597" xlink:href="#b"/><use height="100%" width="100%" y="254.121" x="351.884" xlink:href="#c"/></g><g transform="translate(408.692 -142.288)" fill="#dee1e1"><use height="100%" width="100%" y="465.031" x="119.059" xlink:href="#d"/><use height="100%" width="100%" y="465.031" x="203.003" xlink:href="#e"/><use height="100%" width="100%" y="465.031" x="294.961" xlink:href="#f"/><use height="100%" width="100%" y="465.031" x="380.622" xlink:href="#g"/></g><path d="M1.26 323.088c-.307-.807-.427-43.723-.266-95.37l.292-93.904H17.125l.297 41.578.296 41.578h47.49l.017-40.447c.01-22.245.437-41.108.95-41.916.655-1.032 3.261-1.37 8.751-1.132l7.818.339v190.07l-7.818.339c-5.49.238-8.096-.1-8.75-1.131-.514-.809-.941-19.671-.95-41.917l-.018-40.446h-47.49l-.296 41.577-.297 41.578-7.652.335c-5.476.24-7.812-.082-8.212-1.131zM125.337 323.246c-14.34-2.855-27.532-17.789-32.376-36.652-2.555-9.949-2.555-105.54 0-115.49 3.919-15.26 13.597-28.437 24.974-34.003 7.94-3.885 18.976-4.14 26.927-.623 11.976 5.298 22.595 20.347 26.13 37.033 2.404 11.345 2.404 99.331 0 110.676-5.64 26.622-24.987 43.173-45.655 39.059zm13.73-24.117c4.978-2.136 10.361-8.063 13.482-14.843 2.592-5.631 2.603-5.877 2.603-55.437v-49.78l-2.68-5.93c-4.864-10.76-15.216-17.377-24.465-15.642-5.325.999-13.095 8.077-16.595 15.118-2.628 5.287-2.648 5.639-2.987 52.665-.226 31.414.08 49.364.907 53.351 3.33 16.04 17.446 25.77 29.734 20.498zM180.884 228.566l.29-94.752 22.627.01c22.4.009 22.696.04 29.416 3.176 16.587 7.738 26.587 26.674 26.587 50.346 0 22.503-8.426 40.373-22.787 48.327-5.748 3.184-6.916 3.388-22.468 3.924l-16.405.566-.297 41.578-.296 41.578h-16.956l.29-94.753zm48.076-13.822c8.002-3.632 13.873-15.556 13.873-28.172 0-11.31-6.934-23.73-15.319-27.439-4.126-1.825-7.073-2.148-17.175-1.882l-12.195.322-.303 28.264c-.167 15.545-.055 28.91.247 29.698.4 1.044 4.032 1.428 13.314 1.41 10.14-.02 13.749-.472 17.558-2.201zM568.668 322.88c-8.427-1.868-12.991-4.466-19.395-11.042-6.6-6.776-11.678-17.072-13.452-27.278-1.886-10.849-1.628-11.188 8.213-10.789l8.208.333.765 5.37c2.247 15.78 18.22 25.377 32.385 19.46 15.627-6.527 19.996-26.88 8.525-39.707-1.753-1.96-12.606-12.205-24.117-22.766-25.74-23.613-25.098-22.912-29.431-32.175-16.334-34.923 8.802-76.029 42.664-69.77 8.389 1.551 14.06 4.504 20.848 10.852 8.689 8.128 15.356 24.156 14.359 34.52l-.357 3.706H600.94l-.744-5.2c-.962-6.729-3.316-11.171-8.18-15.442-14.873-13.059-37.72-3.032-38.958 17.097-.694 11.279 2.02 14.934 29.752 40.07 29.588 26.818 33.918 33.236 35.308 52.33 2.285 31.391-22.29 56.454-49.45 50.432zM624.906 322.61c-.44-.44-.8-42.717-.8-93.95v-93.149h16.97v81.459h47.518V135.51h16.983l-.29 93.621-.289 93.621H689.16l-.297-41.012-.297-41.012h-47.46l-.298 41.012-.297 41.012-7.402.33c-4.07.18-7.762-.032-8.202-.472zM748.242 322.035c-14.834-2.197-29.55-18.918-33.517-38.087-.79-3.818-1.241-23.973-1.241-55.482 0-40.735.306-50.68 1.731-56.23 4.09-15.929 13.545-28.476 25.502-33.841 21.693-9.736 44.7 5.96 51.46 35.108 1.487 6.415 1.7 15.55 1.377 59.184-.365 49.22-.492 51.89-2.767 57.92-3.66 9.702-5.82 13.355-11.483 19.408-9.36 10.006-19.131 13.788-31.062 12.02zm13.664-24.071c4.583-2.394 8.85-7.357 11.763-13.678 2.595-5.634 2.606-5.857 2.606-55.517v-49.86l-3.409-6.665c-4.66-9.11-10.946-13.54-19.219-13.54-8.272 0-14.56 4.43-19.219 13.54l-3.408 6.665V279.76l3.006 5.657c2.99 5.627 7.383 10.442 11.702 12.825 3.209 1.77 12.564 1.609 16.178-.28zM801.73 228.85V135.51H847.756l6.936 3.466c8.27 4.132 14.882 11.236 19.341 20.78 4.499 9.628 5.942 16.58 5.917 28.51-.038 18.157-5.842 33.504-16.195 42.812-7.818 7.03-13.158 8.518-30.547 8.518h-14.506v82.59h-16.97V228.85zm50.404-14.908c5.845-4.17 9.884-13.084 10.463-23.094.624-10.784-1.753-18.69-7.551-25.117-5.848-6.48-9.342-7.592-23.863-7.592H818.7v59.006l14.99-.37c13.237-.328 15.395-.659 18.443-2.833zM391.059 71.589c.005-21.199 4.297-46.55 9.7-57.29 3.6-7.16 11.055-13.421 15.979-13.421 2.104 0 4.048.667 4.367 1.499.316.824-.983 6.148-2.887 11.83-5.245 15.657-7.124 30.429-6.51 51.198l.518 17.576-10.585-.04-10.585-.039.002-11.313zM306.756 163.25c-8.116-1.79-18.523-5.604-21.564-7.905-2.029-1.534-2.042-1.663-.17-1.696 3.17-.056 10.64-4.256 15.694-8.821 2.534-2.289 9.123-10.087 14.643-17.33 12.594-16.525 25.021-28.466 34.087-32.753 7.566-3.578 17.658-5.335 20.74-3.61 1.842 1.03 1.813 1.203-.403 2.39-4.012 2.146-11.46 13.704-13.879 21.537-2.854 9.24-3.105 24.422-.523 31.712.981 2.773 1.52 5.73 1.197 6.572-.862 2.247-14.563 8.144-23.148 9.964-9.117 1.933-17.725 1.913-26.674-.06z" fill="#fff"/><path d="M398.963 195.74c0-.475-5.857-8.24-13.014-17.253-7.888-9.934-14.907-20.145-17.82-25.926-4.705-9.34-4.805-9.775-4.805-20.957 0-10.628.259-11.944 3.725-18.982 4.07-8.263 9.787-13.921 18.183-17.993 4.134-2.005 7.283-2.556 14.862-2.602 8.32-.05 10.397.353 15.409 2.99 6.869 3.614 11.046 8.264 15.036 16.735 2.622 5.569 2.93 7.59 2.93 19.234 0 12.627-.12 13.26-4.087 21.496-2.249 4.667-9.504 16.063-16.123 25.326-6.618 9.262-12.034 17.28-12.034 17.819 0 .538-.509.978-1.131.978s-1.131-.389-1.131-.865z" fill="#fff"/><path d="M466.845 163.772c-7.17-1.252-15.564-4.224-21.341-7.557-4.732-2.73-4.906-3.018-4.193-6.967 3.143-17.39 2.718-28.62-1.503-39.726-2.227-5.862-8.03-14.333-11.112-16.224-.823-.505-1.201-1.396-.84-1.98 1.851-2.996 17.908.823 25.978 6.178 8.04 5.335 17.287 14.994 29.421 30.73 13.434 17.421 19.39 22.672 28.837 25.425 2.59.755 2.194 1.124-4.57 4.26-12.785 5.93-27.851 8.1-40.677 5.86zM274.752 239.891c9.258-18.239 11.491-24.857 15.068-44.655 1.606-8.892 3.446-18.268 4.088-20.835l1.166-4.668 5.275 1.749c7.406 2.454 32.669 2.416 40.168-.061l5.476-1.81-.806 3.032c-.444 1.668-1.127 7.646-1.517 13.286-.691 9.979-.838 10.406-5.485 15.955-12.33 14.727-32.022 27.445-55.569 35.89-4.565 1.637-8.104 2.59-7.864 2.117zM386.145 255.551c-7.287-7.841-15.069-16.98-17.293-20.31-5.775-8.645-12.526-23.277-14.694-31.848-3.308-13.075-.347-34.806 5.43-39.86 2.171-1.9 2.368-1.775 6.295 3.96 2.229 3.255 7.99 10.792 12.802 16.749 4.812 5.956 11.113 14.484 14.003 18.95 6.861 10.608 9.04 10.83 14.048 1.436 1.96-3.677 6.462-10.678 10.006-15.557 3.543-4.879 9.118-12.82 12.39-17.646 6.879-10.15 6.877-10.15 10.612 4.454 3.86 15.092 2.377 34.119-3.58 45.935-2.434 4.827-10.166 14.987-20.852 27.4-3.215 3.733-8.111 9.894-10.882 13.691l-5.037 6.903-13.248-14.257zM508.138 237.993c-20.76-7.431-41.512-20.5-51.879-32.671-4.917-5.774-5.017-6.053-5.151-14.374-.076-4.667-.855-11.536-1.732-15.264-.877-3.728-1.427-6.947-1.221-7.152.205-.206 2.585.377 5.289 1.294 12.384 4.2 29.333 5.158 41.753 2.36 3.327-.75 3.523-.154 8.4 25.556 3.173 16.726 5 22.44 10.972 34.336 2.454 4.886 4.302 9.037 4.108 9.223-.195.185-4.938-1.303-10.54-3.308zM334.477 282.306c-1.41-3.889-5.235-12.416-8.5-18.95-6.156-12.319-8.799-19.19-10.039-26.107-.703-3.92-.524-4.182 5.78-8.485 3.579-2.442 10.411-8.154 15.184-12.693l8.677-8.253 1.38 4.293c2.705 8.417 10.091 22.651 16.099 31.024l6.102 8.506-9.245 10.934c-5.085 6.013-11.998 14.484-15.363 18.824-3.365 4.34-6.431 7.91-6.815 7.934-.383.025-1.85-3.137-3.26-7.027zM285.091 301.289c1.733-4.515 5.214-24.887 6.386-37.367 2.046-21.794 1.469-20.183 8.243-22.99 7.26-3.01 7.602-3.022 7.602-.27 0 3.46 5.443 17.655 10.324 26.923 3.505 6.656 4.176 8.8 3.14 10.047-4.467 5.384-36.942 26.906-35.695 23.657z" fill="#fff"/><path d="M341.263 355.246c0-.485-4.075-7.994-9.055-16.687-10.137-17.697-13.076-24.642-15.306-36.17l-1.531-7.92 4.743-4.195c2.61-2.307 5.025-4.216 5.369-4.242.344-.027 1.534 2.624 2.645 5.891 3.58 10.527 4.263 11.99 5.884 12.611 2.778 1.066 4.694-.436 10.795-8.461l5.948-7.825 2.507 5.939c2.951 6.992 10.084 19.84 12.516 22.543 1.546 1.718.995 2.883-5.884 12.445-4.174 5.802-9.692 14.223-12.262 18.715-4.204 7.347-6.37 9.848-6.37 7.356zM302.494 330.345c.27-27.232.575-29.56 3.88-29.636.412-.01 1.11 2.146 1.551 4.79 1.168 6.999 5.809 19.32 10.473 27.806l4.063 7.392-7.287 6.706c-4.008 3.688-8.562 7.615-10.121 8.727l-2.835 2.021.276-27.806z" fill="#fff"/><path d="M350.083 410.441c-12.303-10.966-24.17-30.362-28.61-46.767l-1.984-7.33 3.816-3.453c4.63-4.189 4.827-4.017 11.24 9.743 3.762 8.07 4.737 9.334 7.202 9.334 2.382 0 3.624-1.408 7.545-8.552l4.693-8.552 5.447 8.269c2.996 4.548 6.426 9.542 7.623 11.097 2.174 2.828 2.173 2.833-2.11 14.15-2.358 6.227-5.244 15.005-6.413 19.508l-2.127 8.188-6.322-5.635zM385.634 380.689c-12.315-13.426-19.952-23.612-23.346-31.137l-2.062-4.575 6.435-9.132c3.54-5.023 6.783-9.1 7.206-9.061.424.038 3.826 3.652 7.56 8.03 14.58 17.094 14.633 17.144 17.165 16.34 1.31-.415 3.788-2.902 5.509-5.527 1.72-2.625 6.446-8.769 10.5-13.654l7.374-8.881 2.068 2.659c1.138 1.462 3.948 5.349 6.244 8.636 4.04 5.784 4.127 6.113 2.676 10.182-2.124 5.958-7.324 13.426-20.673 29.69-6.397 7.793-12.394 15.281-13.327 16.64-1.664 2.421-1.93 2.218-13.33-10.21z" fill="#fff"/><path d="M388.724 329.152c-4.636-5.246-10.92-12.65-13.966-16.454-5.613-7.01-16.479-27.818-16.509-31.613-.008-1.14 3.87-6.651 8.62-12.25l8.637-10.18 5.06 4.896c2.783 2.693 7.851 8.362 11.263 12.598 7.528 9.347 9.479 9.532 14.237 1.35 1.81-3.112 5.848-9.042 8.974-13.178l5.685-7.52 7.158 8.207 7.158 8.208-1.659 7.232c-2.027 8.838-6.614 20.641-9.827 25.283-1.311 1.895-5.499 7.264-9.306 11.93a8555.669 8555.669 0 0 0-12.009 14.757l-5.087 6.271-8.429-9.537zM395.902 440.698c-.639-1.4-5.02-7.728-9.735-14.063-4.715-6.335-10.403-14.274-12.639-17.641l-4.065-6.123 3.041-8.38c1.673-4.61 3.375-8.766 3.782-9.236.682-.787 8.588 7.843 16.22 17.703 3.923 5.07 7.05 5.254 9.62.566 2.315-4.222 16.22-22.732 16.71-22.242.19.19 1.861 4.282 3.714 9.094l3.37 8.749-13.762 22.051c-7.569 12.129-14.061 22.056-14.428 22.06-.367.004-1.19-1.138-1.828-2.538zM437.8 406.685c-1.321-5.094-4.564-14.746-7.207-21.448l-4.804-12.187 3.113-4.218c1.712-2.32 5.18-7.39 7.709-11.265l4.596-7.046 3.807 6.318c2.093 3.476 4.833 8.333 6.089 10.793 1.907 3.739 2.777 4.417 5.29 4.122 2.555-.3 3.75-1.88 7.967-10.534 2.728-5.6 5.183-10.411 5.456-10.69.272-.28 2.06 1.057 3.974 2.97l3.48 3.48-1.891 6.645c-4.695 16.501-17.59 37.248-29.493 47.45l-5.685 4.872-2.401-9.262z" fill="#fff"/><path d="M453.739 353.09c-5.2-8.533-12.757-19.923-18.813-28.357l-6.702-9.334 2.376-3.337c3.412-4.792 8.12-15.402 10.227-23.05l1.815-6.589 8.26 10.548c4.544 5.802 8.971 10.956 9.84 11.453 2.962 1.699 5.467-1.268 8.34-9.877l2.87-8.604 5.37 4.829 5.37 4.828-2.193 9.784c-2.376 10.606-4.859 16.05-16.925 37.112l-7.894 13.78-1.941-3.185z" fill="#fff"/><path d="M458.389 287.286c-1.229-1.65-8.749-10.797-16.711-20.328L427.2 249.63l4.98-5.865c7.594-8.942 13.944-19.433 15.547-25.686.794-3.1 1.757-5.635 2.14-5.635.382 0 2.45 1.833 4.594 4.073 4.95 5.171 14.751 12.734 21.834 16.848 5.44 3.16 5.484 3.233 4.774 7.822-.395 2.548-4.271 12.067-8.614 21.154-4.344 9.086-8.783 19.091-9.865 22.233l-1.968 5.712-2.233-3zM502.422 297.654c-8.226-5.479-16.698-12.056-22.752-17.662l-3.58-3.315 5.61-11.469c3.085-6.308 6.387-14.142 7.337-17.408.95-3.267 2.063-5.94 2.474-5.94.41 0 3.556 1.126 6.99 2.503 3.435 1.376 6.328 2.522 6.43 2.545.102.024.752 7.74 1.445 17.146.693 9.407 2.023 21.824 2.956 27.594.933 5.77 1.528 10.66 1.323 10.865-.206.206-3.911-1.98-8.233-4.859zM484.456 350.404c-5.33-4.393-9.692-8.175-9.692-8.404 0-.23 1.767-3.383 3.926-7.007 5.028-8.44 9.048-18.421 10.74-26.665 1.237-6.034 2.483-7.832 3.87-5.587.561.907 1.67 55.65 1.128 55.65-.155 0-4.642-3.594-9.972-7.987z" fill="#fff"/></svg>