<svg xmlns="http://www.w3.org/2000/svg" viewBox="0 0 32 31.999999" height="32" width="32"><path d="M20.8 8.2h-9.6c-1.667 0-3 1.333-3 3V20.8c0 1.667 1.333 3 3 3h9.6c1.666 0 3-1.333 3-3V11.2c0-1.667-1.334-3-3-3zm.866 1.8h.333V12.667h-2.667V10h2.334zm-7.867 4.4c.467-.667 1.334-1.133 2.2-1.133.867 0 1.733.466 2.2 1.133.333.467.533 1 .533 1.6 0 1.533-1.266 2.734-2.733 2.734-1.466 0-2.733-1.2-2.733-2.734 0-.6.2-1.133.533-1.6zm8.467 6.4c0 .8-.667 1.467-1.467 1.467h-9.6A1.48 1.48 0 0 1 9.733 20.8v-6.4h2.333a4.29 4.29 0 0 0-.333 1.6c0 2.333 1.933 4.267 4.266 4.267s4.267-1.934 4.267-4.267a4.29 4.29 0 0 0-.334-1.6h2.334v6.4zm9.733-4.8a16 16 0 0 1-16 16A16 16 0 0 1 0 16 16 16 0 0 1 16 0a16 16 0 0 1 16 16z" fill="#fff"/></svg>