<?xml version="1.0" encoding="UTF-8" standalone="no"?>
<!-- Created with Inkscape (http://www.inkscape.org/) -->

<svg
   xmlns:dc="http://purl.org/dc/elements/1.1/"
   xmlns:cc="http://creativecommons.org/ns#"
   xmlns:rdf="http://www.w3.org/1999/02/22-rdf-syntax-ns#"
   xmlns:svg="http://www.w3.org/2000/svg"
   xmlns="http://www.w3.org/2000/svg"
   xmlns:sodipodi="http://sodipodi.sourceforge.net/DTD/sodipodi-0.dtd"
   xmlns:inkscape="http://www.inkscape.org/namespaces/inkscape"
   width="51.420277mm"
   height="16.933332mm"
   viewBox="0 0 182.19783 59.999997"
   id="svg2"
   version="1.1"
   inkscape:version="0.91 r13725"
   sodipodi:docname="social_icons.svg">
  <defs
     id="defs4" />
  <sodipodi:namedview
     id="base"
     pagecolor="#ffffff"
     bordercolor="#666666"
     borderopacity="1.0"
     inkscape:pageopacity="0.0"
     inkscape:pageshadow="2"
     inkscape:zoom="5.6"
     inkscape:cx="127.74727"
     inkscape:cy="38.034648"
     inkscape:document-units="px"
     inkscape:current-layer="svg2"
     showgrid="false"
     fit-margin-top="0"
     fit-margin-left="0"
     fit-margin-right="0"
     fit-margin-bottom="0"
     inkscape:window-width="1716"
     inkscape:window-height="1400"
     inkscape:window-x="1720"
     inkscape:window-y="38"
     inkscape:window-maximized="0" />
  <metadata
     id="metadata7">
    <rdf:RDF>
      <cc:Work
         rdf:about="">
        <dc:format>image/svg+xml</dc:format>
        <dc:type
           rdf:resource="http://purl.org/dc/dcmitype/StillImage" />
        <dc:title />
      </cc:Work>
    </rdf:RDF>
  </metadata>
  <g
     inkscape:label="Layer 1"
     inkscape:groupmode="layer"
     id="layer1"
     transform="translate(-279.69833,-496.18111)">
    <path
       id="path3810"
       style="clip-rule:evenodd;fill:#d8d9d8;fill-rule:evenodd"
       d="m 375.23211,514.46411 c -2.619,0.953 -4.274,3.411 -4.086,6.101 l 0.063,1.038 -1.048,-0.127 c -3.813,-0.487 -7.145,-2.139 -9.974,-4.915 l -1.383,-1.377 -0.356,1.017 c -0.754,2.267 -0.272,4.661 1.299,6.271 0.838,0.89 0.649,1.017 -0.796,0.487 -0.503,-0.169 -0.943,-0.296 -0.985,-0.233 -0.146,0.149 0.356,2.076 0.754,2.839 0.545,1.06 1.655,2.097 2.871,2.712 l 1.027,0.487 -1.215,0.021 c -1.173,0 -1.215,0.021 -1.089,0.467 0.419,1.377 2.074,2.839 3.918,3.475 l 1.299,0.444 -1.131,0.678 c -1.676,0.976 -3.646,1.526 -5.616,1.568 -0.944,0.02 -1.719,0.105 -1.719,0.169 0,0.211 2.557,1.397 4.044,1.864 4.463,1.377 9.765,0.783 13.746,-1.568 2.829,-1.673 5.657,-5 6.978,-8.221 0.713,-1.716 1.425,-4.851 1.425,-6.354 0,-0.975 0.063,-1.102 1.236,-2.267 0.692,-0.678 1.341,-1.419 1.467,-1.631 0.21,-0.403 0.188,-0.403 -0.88,-0.043 -1.781,0.636 -2.033,0.551 -1.152,-0.402 0.649,-0.678 1.425,-1.907 1.425,-2.267 0,-0.063 -0.314,0.042 -0.671,0.233 -0.377,0.212 -1.215,0.53 -1.844,0.72 l -1.131,0.361 -1.027,-0.7 c -0.566,-0.381 -1.361,-0.805 -1.781,-0.932 -1.069,-0.296 -2.704,-0.254 -3.668,0.085 z m -4.167,41.717 c -16.568,0 -30,-13.431 -30,-30 0,-16.569 13.432,-30 30,-30 16.568,0 30,13.431 30,30 0,16.569 -13.432,30 -30,30 z"
       inkscape:connector-curvature="0" />
    <path
       id="path3920"
       style="clip-rule:evenodd;fill:#d8d9d8;fill-rule:evenodd"
       d="m 305.46333,542.50111 6.744,0 0,-16.322 4.499,0 0.596,-5.624 -5.095,0 0.007,-2.816 c 0,-1.466 0.14,-2.253 2.244,-2.253 l 2.812,0 0,-5.625 -4.5,0 c -5.405,0 -7.307,2.729 -7.307,7.317 l 0,3.377 -3.369,0 0,5.625 3.369,0 0,16.321 z m 4.235,13.68 c -16.568,0 -30,-13.431 -30,-30 0,-16.569 13.432,-30 30,-30 16.568,0 30,13.431 30,30 0,16.569 -13.432,30 -30,30 z"
       inkscape:connector-curvature="0" />
    <path
       id="path3930"
       style="clip-rule:evenodd;fill:#d8d9d8;fill-rule:evenodd"
       d="m 441.16716,518.75911 0,-0.006 c 0.502,0 1.005,0.01 1.508,-0.002 0.646,-0.017 1.172,-0.57 1.172,-1.217 0,-0.963 0,-1.927 0,-2.89 0,-0.691 -0.547,-1.24 -1.236,-1.241 -0.961,0 -1.922,-10e-4 -2.883,0 -0.688,10e-4 -1.236,0.552 -1.236,1.243 -0.001,0.955 -0.004,1.91 0.003,2.865 10e-4,0.143 0.028,0.291 0.073,0.426 0.173,0.508 0.639,0.82 1.209,0.823 0.463,0 0.927,-0.001 1.39,-0.001 z m -9.271,1.239 c -3.384,-0.002 -6.135,2.721 -6.182,6.089 -0.049,3.46 2.72,6.201 6.04,6.272 3.454,0.074 6.248,-2.686 6.321,-6.043 0.075,-3.46 -2.717,-6.32 -6.179,-6.318 z m -11.954,3.299 0,0.082 c 0,4.515 -10e-4,9.03 0,13.545 0,0.649 0.562,1.208 1.212,1.208 7.16,10e-4 14.319,10e-4 21.479,0 0.656,0 1.215,-0.557 1.215,-1.212 10e-4,-4.509 0,-9.02 0,-13.528 l 0,-0.094 -2.912,0 c 0.411,1.313 0.537,2.651 0.376,4.014 -0.161,1.363 -0.601,2.631 -1.316,3.803 -0.715,1.172 -1.644,2.145 -2.779,2.918 -2.944,2.006 -6.821,2.182 -9.946,0.428 -1.579,-0.885 -2.819,-2.12 -3.685,-3.713 -1.289,-2.373 -1.495,-4.865 -0.739,-7.451 -0.968,0 -1.93,0 -2.905,0 z m 24.159,18.139 c 0.159,-0.026 0.318,-0.049 0.475,-0.083 1.246,-0.265 2.264,-1.304 2.508,-2.557 0.025,-0.137 0.045,-0.273 0.067,-0.409 l 0,-24.412 c -0.021,-0.133 -0.04,-0.268 -0.065,-0.401 -0.268,-1.367 -1.396,-2.428 -2.78,-2.618 -0.058,-0.007 -0.113,-0.02 -0.17,-0.03 l -24.479,0 c -0.147,0.027 -0.296,0.047 -0.441,0.08 -1.352,0.308 -2.352,1.396 -2.545,2.766 -0.008,0.057 -0.02,0.114 -0.029,0.171 l 0,24.478 c 0.028,0.154 0.05,0.311 0.085,0.465 0.299,1.322 1.427,2.347 2.77,2.52 0.064,0.008 0.13,0.021 0.195,0.03 l 24.409,0 z m -12.205,14.745 c -16.568,0 -30,-13.431 -30,-30 0,-16.569 13.432,-30 30,-30 16.568,0 30,13.431 30,30 0,16.569 -13.432,30 -30,30 z"
       inkscape:connector-curvature="0" />
  </g>
  <path
     style="fill:#000000"
     d="m 25.83559,38.188563 -0.04644,-8.169643 -1.651786,-0.05134 -1.651786,-0.05134 0,-2.761156 0,-2.761156 1.696429,0 1.696428,0 0,-2.659761 c 0,-2.167167 0.06704,-2.87682 0.361996,-3.831766 0.504809,-1.634381 1.275509,-2.577883 2.681638,-3.282898 1.447497,-0.725757 2.800993,-0.936806 6.018866,-0.938511 l 2.544643,-0.0013 0,2.767857 0,2.767857 -1.651785,0.01008 c -1.925163,0.01175 -2.803764,0.260522 -3.117712,0.882778 -0.139014,0.27553 -0.226246,1.181292 -0.22787,2.366071 l -0.0026,1.919643 2.5,0 c 2.473979,0 2.499985,0.0042 2.498535,0.401786 -0.0016,0.42357 -0.277315,3.088917 -0.45266,4.375 l -0.103472,0.758929 -2.221201,0 -2.221202,0 0,8.214285 0,8.214286 -3.30177,0 -3.30177,0 -0.04644,-8.169643 z"
     id="path3350"
     inkscape:connector-curvature="0" />
  <path
     style="fill:#000000"
     d="m 83.021289,41.628756 c -1.231541,-0.245739 -3.489516,-1.07765 -4.819474,-1.775652 l -0.801617,-0.420712 1.426617,-0.116809 c 2.124476,-0.17395 3.747048,-0.567232 5.161419,-1.25104 2.132062,-1.030787 2.145317,-1.056607 0.776334,-1.512175 -1.496831,-0.498114 -3.038897,-1.600126 -3.615233,-2.583569 -0.711138,-1.213465 -0.639495,-1.360042 0.666596,-1.363828 l 1.116072,-0.0032 -0.982143,-0.54019 c -1.976839,-1.087285 -3.245093,-2.789725 -3.508189,-4.709215 l -0.109947,-0.80215 1.009295,0.287119 c 0.555112,0.157916 1.059113,0.237301 1.120002,0.176412 0.06089,-0.06089 -0.220403,-0.539889 -0.625094,-1.064444 -1.440194,-1.866758 -1.767887,-4.065994 -0.932692,-6.259532 l 0.193329,-0.507756 1.257252,1.132756 c 2.45848,2.215037 4.348827,3.403882 6.665668,4.192061 1.094472,0.372334 3.719441,0.958552 4.292208,0.958552 0.149781,0 0.215236,-0.429263 0.215236,-1.411547 0,-1.226561 0.07474,-1.563375 0.570338,-2.57007 1.074809,-2.183247 2.985548,-3.386804 5.37681,-3.386804 1.493334,0 2.406702,0.303437 3.801064,1.262781 l 0.76575,0.526852 1.4277,-0.523745 c 1.99931,-0.73344 2.0527,-0.747351 2.0527,-0.534894 0,0.104468 -0.40572,0.725975 -0.90161,1.381127 -0.49588,0.655152 -0.85354,1.239246 -0.7948,1.297986 0.0587,0.05874 0.60509,-0.02349 1.2141,-0.182738 0.60902,-0.159246 1.13822,-0.259508 1.17601,-0.222803 0.0378,0.03671 -0.51723,0.716699 -1.23337,1.511099 l -1.30207,1.444364 -0.23198,1.791305 c -0.62608,4.834609 -2.04071,7.941359 -5.053569,11.098415 -3.193495,3.34634 -7.1485,4.961261 -12.069141,4.928118 -1.178571,-0.0079 -2.665179,-0.118657 -3.303571,-0.246039 z"
     id="path3352"
     inkscape:connector-curvature="0" />
  <path
     style="fill:#ffffff"
     d="m 139.91624,45.201449 c -0.0982,-0.0341 -0.39336,-0.109188 -0.65588,-0.166857 -0.69344,-0.152331 -1.57787,-0.96397 -1.9549,-1.793999 -0.30787,-0.677776 -0.32799,-1.476571 -0.33073,-13.132387 -0.002,-7.700642 0.0646,-12.653652 0.17489,-13.050838 0.24011,-0.864379 1.27438,-1.860631 2.19536,-2.11468 0.54388,-0.150026 4.18313,-0.192485 13.24983,-0.154588 13.9633,0.05837 13.10909,-0.02214 14.14255,1.332804 l 0.50031,0.65593 0,13.242086 0,13.242086 -0.481,0.630614 c -0.26454,0.346836 -0.78686,0.782545 -1.16071,0.968241 -0.64495,0.320357 -1.31469,0.339318 -13.09044,0.370611 -6.82589,0.01814 -12.49107,0.0051 -12.58928,-0.02902 z m 23.82062,-3.55842 c 0.37005,-0.334962 0.37581,-0.449225 0.37581,-7.455357 l 0,-7.11518 -1.44939,0 -1.44939,0 0.11958,0.491071 c 0.0658,0.270089 0.16325,1.133929 0.21662,1.919643 0.18424,2.712643 -0.75681,5.202402 -2.70127,7.146868 -3.63528,3.635275 -9.30824,3.727882 -13.06536,0.21328 -1.71319,-1.602603 -2.58324,-3.281377 -2.91532,-5.625177 -0.1589,-1.121477 -0.0177,-3.083501 0.27718,-3.851995 0.0992,-0.25852 -0.0714,-0.29369 -1.42426,-0.29369 l -1.53697,0 0,7.019441 c 0,7.370046 -0.004,7.329755 0.80358,7.776578 0.25247,0.139665 3.58336,0.185422 11.36526,0.156131 10.54286,-0.03968 11.02402,-0.05582 11.38393,-0.381613 z m -9.04969,-5.954975 c 1.17047,-0.52248 2.54227,-1.863771 3.1268,-3.057278 0.42562,-0.869023 0.49228,-1.221764 0.4936,-2.611856 0.001,-1.360404 -0.0696,-1.757927 -0.46175,-2.589285 -0.56404,-1.195774 -1.71308,-2.373175 -2.92143,-2.993548 -1.31696,-0.676132 -3.52282,-0.768135 -5.00684,-0.208827 -2.96243,1.116509 -4.63381,4.712122 -3.60524,7.755946 0.59171,1.751045 2.35307,3.460545 4.13964,4.017762 0.90983,0.283767 3.29297,0.107692 4.23522,-0.312914 z m 9.06835,-13.436991 c 0.31452,-0.314516 0.35715,-0.595238 0.35715,-2.35201 0,-2.676918 0.0286,-2.64799 -2.61697,-2.64799 -2.70527,0 -2.74018,0.03268 -2.74018,2.565204 0,1.602132 0.0498,1.91416 0.37011,2.321428 0.35948,0.457015 0.42607,0.470511 2.32142,0.470511 1.71324,0 1.99491,-0.04358 2.30847,-0.357143 z"
     id="path3354"
     inkscape:connector-curvature="0" />
  <path
     style="fill:#ffffff"
     d="M 26.91484,59.819311 C 13.576445,58.144977 3.4623507,48.957922 0.62717527,35.941127 0.28406246,34.365836 0.2313388,33.583504 0.22806018,30.01892 0.22472398,26.391726 0.27214277,25.69267 0.63384461,24.036777 3.2641582,11.995042 12.088687,3.2118058 24.164828,0.61590142 c 1.716644,-0.36901225 2.410248,-0.4175532 5.875012,-0.41115477 4.394482,0.008115 5.958375,0.24326996 9.527089,1.43254055 8.821977,2.939915 15.848395,9.9777108 18.779925,18.8103328 2.9947,9.022948 1.74745,18.337663 -3.513166,26.23704 -2.952339,4.433251 -7.171571,8.055146 -12.115276,10.400055 -3.981563,1.888541 -7.316295,2.654545 -11.964286,2.74825 -1.767857,0.03564 -3.495536,0.0295 -3.839286,-0.01366 l 0,7e-6 z m 5.714286,-21.580609 0,-8.119503 2.1875,-0.05014 2.1875,-0.05014 0.212659,-1.785714 c 0.116964,-0.982143 0.247743,-2.247768 0.290619,-2.8125 l 0.07796,-1.026786 -2.478119,0 -2.47812,0 0,-1.863375 c 0,-1.024857 0.07537,-2.061623 0.167496,-2.303925 0.234066,-0.615637 1.176677,-0.880294 3.168549,-0.889632 l 1.663955,-0.0078 0,-2.839376 0,-2.839377 -3.348214,0.0793 c -1.841518,0.04362 -3.627693,0.138254 -3.969277,0.210309 -1.047618,0.220986 -2.018847,0.803589 -2.889195,1.733116 -1.259237,1.344858 -1.567007,2.4585 -1.706857,6.176118 l -0.09572,2.544642 -1.678471,0 -1.678474,0 0.04918,2.8125 0.04918,2.8125 1.599562,0.05194 c 0.879759,0.02857 1.632447,0.08483 1.67264,0.125022 0.04019,0.04019 0.06813,3.693159 0.06208,8.1177 l -0.011,8.044623 3.472291,0 3.472293,0 0,-8.119504 z"
     id="path3356"
     inkscape:connector-curvature="0" />
  <path
     style="fill:#ffffff"
     d="M 87.807697,59.734942 C 75.410009,58.139133 65.33376,49.305992 62.368861,37.434501 59.822117,27.23731 62.570605,16.782195 69.753141,9.3450556 74.083654,4.8610362 79.348215,1.9395871 85.486269,0.6143129 c 1.635764,-0.35317961 2.38765,-0.40483339 5.892857,-0.40483339 3.484821,0 4.258655,0.0525434 5.832921,0.39605664 5.902213,1.28789445 10.814693,3.87740285 14.947743,7.87939005 8.30931,8.0458168 11.22914,19.9160618 7.60999,30.9375908 -3.55792,10.835089 -13.10318,18.744541 -24.426586,20.240505 -2.151572,0.28425 -5.628148,0.31743 -7.535497,0.07192 z m 1.160715,-17.900999 c 1.399442,-0.195021 2.089414,-0.375735 3.660714,-0.958794 0.933036,-0.346218 1.797768,-0.711175 1.921628,-0.811014 0.123859,-0.09984 0.458995,-0.31157 0.744745,-0.470513 0.916557,-0.509816 1.478023,-0.97412 2.832772,-2.342559 2.790159,-2.818361 4.345829,-5.750371 5.127999,-9.664871 0.0746,-0.373277 0.2022,-1.245666 0.36103,-2.468075 0.11053,-0.850706 0.26172,-1.129722 1.20949,-2.232143 0.59574,-0.692952 1.18873,-1.366097 1.31775,-1.495881 0.37614,-0.378355 0.27405,-0.601289 -0.1672,-0.365137 -0.22098,0.118266 -0.44196,0.201577 -0.49107,0.185137 -0.0491,-0.01645 -0.35419,0.01981 -0.67797,0.08055 -0.32378,0.06074 -0.63232,0.0668 -0.68564,0.01348 -0.0533,-0.05333 0.21785,-0.565205 0.60262,-1.137507 0.8909,-1.325129 1.0607,-1.751747 0.62909,-1.580588 -0.17299,0.0686 -0.98048,0.367484 -1.79443,0.66419 l -1.4799,0.539462 -0.66296,-0.438373 c -1.712558,-1.132411 -2.209674,-1.285923 -4.145097,-1.280023 -1.375241,0.0042 -1.611589,0.05821 -2.515454,0.574921 -1.71418,0.979941 -2.776269,2.268913 -3.117485,3.783434 -0.153122,0.679648 -0.177307,0.912273 -0.226954,2.183036 l -0.03296,0.843746 -0.580357,-0.109094 c -3.215559,-0.604456 -5.983088,-1.689052 -7.936402,-3.110281 -0.997141,-0.725518 -3.426979,-2.773646 -3.63977,-3.067989 -0.14973,-0.207114 -0.450267,0.536805 -0.696989,1.725262 -0.211923,1.020827 -0.162386,2.089281 0.137416,2.963888 0.376597,1.098643 0.619998,1.607143 0.769286,1.607143 0.08861,0 0.161102,0.08777 0.161102,0.195048 0,0.107277 0.161839,0.400795 0.359642,0.652261 0.197806,0.251468 0.322679,0.49418 0.277497,0.53936 -0.04518,0.04518 -0.492609,-0.01632 -0.994282,-0.136669 -0.501674,-0.12035 -0.951103,-0.17985 -0.99873,-0.132223 -0.177575,0.177575 0.653007,2.718789 1.098935,3.362267 0.604013,0.87159 0.924329,1.150943 2.265922,1.976154 l 1.116016,0.686459 -1.016247,10e-5 c -1.139402,1.12e-4 -1.315018,0.131641 -0.988643,0.740443 0.775899,1.447321 2.256995,2.676364 3.902193,3.238116 0.572286,0.195407 0.996589,0.426364 0.942898,0.513237 -0.150789,0.243983 -1.682776,0.981175 -2.870546,1.381306 -1.183877,0.398819 -2.917895,0.711062 -4.222967,0.760427 -0.46807,0.0177 -0.893696,0.101214 -0.945837,0.18558 -0.05214,0.08436 0.373124,0.359968 0.945031,0.61245 0.571907,0.25248 1.391257,0.618784 1.820778,0.814007 0.42952,0.195221 0.938172,0.385229 1.130336,0.422236 0.192166,0.03701 0.523775,0.124914 0.736913,0.19535 1.499991,0.495698 4.656407,0.663652 6.816091,0.362685 z"
     id="path3358"
     inkscape:connector-curvature="0" />
  <path
     style="fill:#000000"
     d="m 139.25393,45.027631 c -0.84655,-0.304764 -1.68311,-1.0675 -2.01079,-1.833332 -0.20104,-0.469852 -0.24587,-2.877047 -0.24587,-13.20255 0,-12.503373 0.004,-12.635645 0.37878,-13.410375 0.22817,-0.471341 0.66675,-0.973016 1.10303,-1.261737 l 0.72426,-0.479288 12.95946,0 c 14.49123,0 13.56323,-0.08138 14.60203,1.280555 l 0.5003,0.65593 0,13.242086 0,13.242086 -0.48099,0.630614 c -0.26455,0.346836 -0.78687,0.782545 -1.16071,0.968241 -0.64472,0.320243 -1.32348,0.33965 -13.17973,0.376863 -10.29871,0.03232 -12.62147,-0.0045 -13.18977,-0.209093 z m 16.41457,-3.131273 c 6.35409,-0.002 7.74927,-0.04642 8.03572,-0.255773 0.33163,-0.242377 0.34881,-0.563 0.39714,-7.410715 l 0.0505,-7.157378 -1.45526,0 -1.45527,0 0.11358,0.491071 c 0.0625,0.270089 0.16047,1.133929 0.2178,1.919643 0.19679,2.697058 -0.74453,5.18688 -2.70048,7.14283 -4.56108,4.561077 -12.18111,3.356791 -15.05188,-2.378832 -1.06751,-2.132826 -1.31041,-4.149584 -0.80497,-6.683641 l 0.0979,-0.491071 -1.4509,0 -1.45089,0 0,6.759068 c 0,5.968267 0.0805,7.489237 0.41925,7.918203 0.0514,0.0651 6.63463,0.255648 6.99146,0.202364 0.19643,-0.02933 3.81723,-0.05443 8.04623,-0.05577 z m -0.88395,-6.327641 c 1.19647,-0.547765 2.46777,-1.813141 3.0258,-3.011706 0.35817,-0.769287 0.43374,-1.21283 0.43518,-2.554212 0.002,-1.451444 -0.0555,-1.737749 -0.53874,-2.704868 -0.62331,-1.247349 -1.79996,-2.410214 -2.99957,-2.964432 -1.25584,-0.580192 -3.8807,-0.550723 -5.12066,0.05749 -1.14258,0.560448 -2.39413,1.810002 -2.95407,2.94936 -0.37723,0.767594 -0.43879,1.143384 -0.43879,2.678571 0,2.111448 0.31184,2.924518 1.63725,4.268925 0.87362,0.886129 1.48121,1.265491 2.64847,1.653598 1.04081,0.346067 3.1302,0.165172 4.30513,-0.372726 z m 8.93287,-13.414423 c 0.44004,-0.440036 0.45207,-0.514182 0.39367,-2.425431 -0.0764,-2.50002 -0.0523,-2.4778 -2.68366,-2.4778 -2.6012,0 -2.64444,0.04247 -2.64444,2.597403 0,1.761263 0.0284,1.911479 0.43831,2.321428 0.40745,0.407453 0.56518,0.438312 2.24026,0.438312 1.69191,0 1.82967,-0.02772 2.25586,-0.453912 z"
     id="path3362"
     inkscape:connector-curvature="0" />
  <path
     style="fill:#ffffff"
     d="m 149.49727,59.835227 c -0.14732,-0.02914 -0.99107,-0.149875 -1.875,-0.268309 -3.41345,-0.457348 -7.71996,-2.006478 -10.87386,-3.911526 -13.3367,-8.055749 -18.29155,-25.078184 -11.34869,-38.988506 4.12797,-8.2705505 11.63966,-14.031267 20.9432,-16.06134985 1.57427,-0.3435132 2.3481,-0.39605664 5.83293,-0.39605664 3.50974,0 4.25497,0.0513312 5.89285,0.40589548 4.6831,1.01378541 9.33098,3.16348651 12.76786,5.90528761 1.30717,1.0428105 3.86268,3.6585904 4.98776,5.1054004 6.17755,7.944107 7.94283,18.365311 4.74209,27.994718 -0.7543,2.269312 -2.44837,5.600661 -3.88017,7.630282 -0.65822,0.933036 -2.20348,2.704622 -3.43393,3.936857 -4.77058,4.777516 -10.46386,7.595129 -17.14396,8.484566 -1.62611,0.216515 -5.81753,0.319691 -6.61108,0.162741 z m 15.96669,-14.880362 c 1.02097,-0.45163 1.84079,-1.440229 1.97679,-2.383766 0.0608,-0.421556 0.0863,-6.358213 0.0567,-13.192572 l -0.0538,-12.426107 -0.53571,-0.773208 c -1.03009,-1.486757 -0.27112,-1.414191 -14.90023,-1.424606 l -12.91324,-0.0092 -0.79379,0.650451 c -0.7458,0.611127 -1.0687,1.102058 -1.27897,1.944485 -0.13304,0.533036 -0.12162,24.942209 0.0119,25.357143 0.0632,0.196428 0.12105,0.40636 0.12856,0.466518 0.008,0.06016 0.25772,0.416476 0.55601,0.791826 1.085,1.365291 0.35494,1.299016 14.4422,1.311072 11.75346,0.01005 12.62144,-0.0103 13.30357,-0.312043 z"
     id="path3364"
     inkscape:connector-curvature="0" />
  <path
     style="fill:#ffffff"
     d="m 142.30267,41.760858 c -1.51198,-0.05743 -1.57623,-0.07707 -1.75028,-0.534852 -0.10252,-0.269643 -0.22769,-3.395258 -0.28934,-7.225087 l -0.10866,-6.749856 1.35786,0 1.35786,0 -0.10365,1.830357 c -0.12332,2.177653 0.0856,3.343911 0.88674,4.94954 1.28717,2.579831 3.34642,4.306562 6.07522,5.094241 4.1625,1.201518 9.04961,-1.006275 10.98336,-4.961825 0.75244,-1.539138 1.00015,-2.995651 0.87354,-5.136202 l -0.10505,-1.776111 1.31029,0 1.31029,0 -0.0943,6.830357 c -0.0518,3.756697 -0.15661,6.998155 -0.23281,7.203242 -0.13278,0.357353 -0.30096,0.377788 -4.03788,0.490633 -3.79087,0.114474 -14.2679,0.105797 -17.43323,-0.01444 z"
     id="path3366"
     inkscape:connector-curvature="0" />
  <path
     style="fill:#ffffff"
     d="m 149.93488,35.647299 c -1.01944,-0.405612 -2.73694,-2.006215 -3.24294,-3.022218 -0.47115,-0.946054 -0.45747,-4.292876 0.0215,-5.257613 0.46247,-0.931505 1.83695,-2.31069 2.79841,-2.807991 1.10159,-0.569782 3.49061,-0.692027 4.83002,-0.247149 1.16954,0.38846 2.74014,1.88654 3.34918,3.194539 0.5831,1.252297 0.59021,3.8352 0.0139,5.02582 -0.51993,1.074013 -1.87629,2.413596 -2.96335,2.926678 -1.2514,0.590649 -3.56696,0.681184 -4.80667,0.187934 z"
     id="path3368"
     inkscape:connector-curvature="0" />
  <path
     style="fill:none"
     d="m 160.00691,22.493286 c -0.94036,-0.166756 -1.13553,-0.626954 -1.12591,-2.654774 0.006,-1.171023 0.0878,-1.934527 0.22622,-2.101369 0.50778,-0.611829 4.3458,-0.56691 4.67851,0.05476 0.0926,0.17307 0.18497,1.12961 0.20522,2.125643 0.0479,2.355165 -0.0831,2.517097 -2.10313,2.601022 -0.77462,0.03218 -1.62103,0.02081 -1.88091,-0.02528 z"
     id="path3370"
     inkscape:connector-curvature="0" />
  <path
     style="fill:none"
     d="m 149.71521,35.467795 c -0.94079,-0.427001 -2.64117,-2.096531 -2.99309,-2.938787 -0.30745,-0.735838 -0.35486,-3.770535 -0.0747,-4.779413 0.26264,-0.945646 1.77867,-2.527895 2.98992,-3.120503 0.879,-0.430055 1.22277,-0.494733 2.62323,-0.49355 2.02471,0.0017 2.88745,0.381297 4.27637,1.881499 1.12982,1.220338 1.53172,2.270381 1.53172,4.001879 0,1.863385 -0.41193,2.867333 -1.69113,4.121601 -1.383,1.356033 -2.23533,1.683512 -4.36746,1.678049 -1.12772,-0.0029 -1.73188,-0.09524 -2.2949,-0.350775 z"
     id="path3372"
     inkscape:connector-curvature="0" />
  <path
     style="fill:#ffffff"
     d="m 160.00691,22.493286 c -0.94036,-0.166756 -1.13553,-0.626954 -1.12591,-2.654774 0.006,-1.171023 0.0878,-1.934527 0.22622,-2.101369 0.50778,-0.611829 4.3458,-0.56691 4.67851,0.05476 0.0926,0.17307 0.18497,1.12961 0.20522,2.125643 0.0479,2.355165 -0.0831,2.517097 -2.10313,2.601022 -0.77462,0.03218 -1.62103,0.02081 -1.88091,-0.02528 z"
     id="path3374"
     inkscape:connector-curvature="0" />
  <path
     style="fill:#ffffff"
     d="m 159.40799,22.18859 c -0.31258,-0.232136 -0.36343,-0.506632 -0.40753,-2.199596 -0.0281,-1.078207 0.0283,-2.052914 0.12742,-2.202217 0.23949,-0.360807 4.15606,-0.391868 4.51225,-0.03579 0.32476,0.324655 0.32511,4.03 4.2e-4,4.356406 -0.35776,0.359645 -3.7695,0.425092 -4.23256,0.08119 z"
     id="path3376"
     inkscape:connector-curvature="0" />
</svg>
