<?xml version="1.0" encoding="UTF-8" standalone="no"?>
<svg
   xmlns:dc="http://purl.org/dc/elements/1.1/"
   xmlns:cc="http://creativecommons.org/ns#"
   xmlns:rdf="http://www.w3.org/1999/02/22-rdf-syntax-ns#"
   xmlns:svg="http://www.w3.org/2000/svg"
   xmlns="http://www.w3.org/2000/svg"
   version="1.1"
   id="svg4279"
   viewBox="0 0 32 32.000001"
   height="32"
   width="32">
  <defs
     id="defs4281" />
  <metadata
     id="metadata4284">
    <rdf:RDF>
      <cc:Work
         rdf:about="">
        <dc:format>image/svg+xml</dc:format>
        <dc:type
           rdf:resource="http://purl.org/dc/dcmitype/StillImage" />
        <dc:title></dc:title>
      </cc:Work>
    </rdf:RDF>
  </metadata>
  <g
     transform="translate(-218.28572,-613.50506)"
     id="layer1">
    <g
       transform="matrix(1.0014104,0,0,0.99998875,215.99724,631.12449)"
       id="layer4"
       style="display:inline">
      <path
         d="M 16.362,14.292 C 9.7442,13.437 4.365,8.7015 2.782,2.337 1.4229,-3.1296 2.8901,-8.735 6.7244,-12.722 c 2.3117,-2.4039 5.1221,-3.9701 8.3988,-4.6806 0.87322,-0.18934 1.2746,-0.21703 3.1458,-0.21703 1.8603,0 2.2734,0.02817 3.1138,0.21233 3.1508,0.69044 5.7732,2.0787 7.9795,4.2242 4.4357,4.3134 5.9944,10.677 4.0624,16.586 -1.8993,5.8087 -6.9948,10.049 -13.04,10.851 -1.1486,0.15239 -3.0045,0.17018 -4.0227,0.03856 z m 0.61962,-9.5968 c 0.74706,-0.10455 1.1154,-0.20143 1.9542,-0.51401 0.49808,-0.18561 0.9597,-0.38126 1.0258,-0.43479 0.06612,-0.05352 0.24502,-0.16703 0.39756,-0.25224 0.48928,-0.27331 0.78901,-0.52223 1.5122,-1.2559 1.4895,-1.5109 2.3199,-3.0828 2.7375,-5.1814 0.03982,-0.20012 0.10794,-0.6678 0.19273,-1.3231 0.05901,-0.45606 0.13971,-0.60565 0.64566,-1.1967 0.31802,-0.37149 0.63458,-0.73237 0.70345,-0.80194 0.20079,-0.20284 0.1463,-0.32235 -0.08925,-0.19575 -0.11796,0.0634 -0.23593,0.10807 -0.26215,0.09925 -0.0262,-0.0088 -0.18908,0.01062 -0.36192,0.04318 -0.17284,0.03256 -0.33755,0.03581 -0.36601,0.0072 -0.02845,-0.02859 0.11629,-0.30301 0.3217,-0.60982 0.47559,-0.7104 0.56623,-0.93912 0.33582,-0.84736 -0.09235,0.03677 -0.52341,0.19701 -0.95792,0.35607 l -0.79001,0.28921 -0.35391,-0.23501 c -0.91421,-0.60709 -1.1796,-0.68939 -2.2128,-0.68622 -0.73415,0.0022 -0.86031,0.03121 -1.3428,0.30822 -0.91508,0.52535 -1.482,1.2164 -1.6642,2.0283 -0.08174,0.36436 -0.09466,0.48907 -0.12115,1.1703 l -0.0176,0.45234 -0.30981,-0.05849 c -1.717,-0.3227 -3.195,-0.9041 -4.238,-1.666 -0.532,-0.389 -1.829,-1.487 -1.943,-1.6448 -0.07993,-0.11104 -0.24036,0.28778 -0.37207,0.92492 -0.11313,0.54727 -0.08669,1.1201 0.07336,1.5889 0.20104,0.58899 0.33097,0.86159 0.41067,0.86159 0.04731,0 0.08601,0.04705 0.08601,0.10456 0,0.05751 0.08639,0.21487 0.19198,0.34968 0.1056,0.13481 0.17226,0.26493 0.14814,0.28915 -0.02412,0.02422 -0.26297,-0.0087 -0.53078,-0.07327 -0.26781,-0.06452 -0.50772,-0.09641 -0.53315,-0.070881 -0.0948,0.0952 0.34859,1.4575 0.58664,1.8025 0.32244,0.46726 0.49343,0.61702 1.2096,1.0594 l 0.59576,0.36801 -0.5425,5.299e-5 c -0.60824,6.001e-5 -0.70199,0.07057 -0.52776,0.39695 0.4142,0.77591 1.2048,1.43480001 2.0831,1.73600001 0.3055,0.10476 0.53201,0.22857 0.50334,0.27515 -0.0805,0.1308 -0.89831,0.52601 -1.5324,0.74052 -0.63198,0.21381 -1.5577,0.3812 -2.2543,0.40767 -0.24987,0.0095 -0.47708,0.05426 -0.50491,0.09949 -0.02783,0.04523 0.19918,0.19298 0.50448,0.32834 0.3053,0.13535 0.74269,0.33173 0.97198,0.43639 0.22929,0.10466 0.50082,0.20652 0.6034,0.22636 0.10258,0.01985 0.2796,0.06697 0.39338,0.10473 0.80074,0.26574 2.4857,0.35578 3.6386,0.19444 z"
         id="path3358"
         style="fill:#ffffff" />
    </g>
  </g>
</svg>
