<svg xmlns="http://www.w3.org/2000/svg" viewBox="0 0 32 32.000001" height="32" width="32"><path d="M14.097 31.911c-6.628-.855-12.014-5.59-13.6-11.955C-.863 14.49.606 8.885 4.445 4.898 6.76 2.494 9.575.928 12.856.217 13.731.027 14.132 0 16.006 0c1.863 0 2.277.028 3.118.212 3.156.69 5.782 2.079 7.991 4.224 4.442 4.314 6.003 10.677 4.068 16.586-1.902 5.809-7.004 10.05-13.058 10.851-1.15.153-3.009.17-4.028.039zm.62-9.596c.748-.105 1.117-.202 1.957-.514.499-.186.961-.382 1.027-.435.067-.054.246-.167.398-.252.49-.274.79-.523 1.515-1.256 1.491-1.511 2.323-3.083 2.741-5.182.04-.2.108-.667.193-1.323.06-.456.14-.605.647-1.196.318-.372.635-.733.704-.802.201-.203.147-.323-.09-.196-.117.063-.236.108-.262.1-.026-.01-.19.01-.362.042-.173.033-.338.036-.367.008-.028-.03.117-.304.322-.61.477-.71.567-.94.337-.848-.093.037-.524.197-.96.356l-.79.29-.355-.235c-.916-.607-1.181-.69-2.216-.687-.735.003-.862.032-1.345.309-.916.525-1.484 1.216-1.666 2.028-.082.364-.095.489-.122 1.17l-.017.453-.31-.059c-1.72-.323-3.2-.904-4.244-1.666-.533-.389-1.832-1.487-1.946-1.645-.08-.11-.24.288-.373.925-.113.547-.087 1.12.074 1.589.201.589.331.862.411.862.047 0 .086.047.086.104 0 .058.087.215.192.35.106.135.173.265.149.289-.024.024-.264-.009-.532-.073-.268-.065-.508-.097-.534-.071-.095.095.35 1.457.588 1.802.323.468.494.617 1.211 1.06l.597.368h-.544c-.609 0-.703.07-.528.397.415.776 1.206 1.435 2.086 1.736.306.104.533.228.504.275-.08.13-.9.526-1.535.74a8.992 8.992 0 0 1-2.257.408c-.25.01-.478.054-.506.1-.028.045.2.193.505.328.306.135.744.332.974.436.23.105.501.207.604.227.103.02.28.067.394.104.802.266 2.49.356 3.644.195z" fill="#fff"/></svg>